<?xml version="1.0" encoding="iso-8859-1"?>
<!-- Generator: Adobe Illustrator 19.0.0, SVG Export Plug-In . SVG Version: 6.00 Build 0)  -->
<svg xmlns="http://www.w3.org/2000/svg" xmlns:xlink="http://www.w3.org/1999/xlink" version="1.1" id="Layer_1" x="0px" y="0px" viewBox="0 0 512 512" style="enable-background:new 0 0 512 512;" xml:space="preserve" width="512px" height="512px">
<g>
	<g>
		<path d="M489.739,478.609h-83.478v-27.826c0-23.985-16.963-44.04-39.51-48.914c-8.481-22.027-15.222-44.796-20.206-67.956H164.058    c-5.02,23.332-11.816,46.267-20.388,68.447c-21.731,5.467-37.931,25.018-37.931,48.423v27.826H22.261    c-9.223,0-16.696,7.479-16.696,16.696c0,9.217,7.473,16.696,16.696,16.696c317.362,0,270.66,0,467.478,0    c9.223,0,16.696-7.479,16.696-16.696C506.435,486.087,498.962,478.609,489.739,478.609z" fill="#800000"/>
	</g>
</g>
<g>
	<g>
		<path d="M339.478,133.565h-16.854c10.529-13.971,16.854-31.283,16.854-50.087C339.478,37.446,302.032,0,256,0    s-83.478,37.446-83.478,83.478c0,18.804,6.324,36.116,16.854,50.087h-16.854c-18.442,0-33.391,14.949-33.391,33.391    s14.949,33.391,33.391,33.391h166.957c18.442,0,33.391-14.949,33.391-33.391S357.92,133.565,339.478,133.565z" fill="#800000"/>
	</g>
</g>
<g>
	<g>
		<path d="M336.427,233.739H174.18c0.2,22.288-1.251,44.632-4.329,66.783h170.906C337.679,278.371,336.227,256.027,336.427,233.739z    " fill="#800000"/>
	</g>
</g>
<g>
</g>
<g>
</g>
<g>
</g>
<g>
</g>
<g>
</g>
<g>
</g>
<g>
</g>
<g>
</g>
<g>
</g>
<g>
</g>
<g>
</g>
<g>
</g>
<g>
</g>
<g>
</g>
<g>
</g>
</svg>
