<svg xmlns="http://www.w3.org/2000/svg" viewBox="0 0 512 512" width="512" height="512"><path d="M489.739 478.609h-83.478v-27.826c0-23.985-16.963-44.04-39.51-48.914-8.481-22.027-15.222-44.796-20.206-67.956H164.058c-5.02 23.332-11.816 46.267-20.388 68.447-21.731 5.467-37.931 25.018-37.931 48.423v27.826H22.261c-9.223 0-16.696 7.479-16.696 16.696 0 9.217 7.473 16.696 16.696 16.696h467.478c9.223 0 16.696-7.479 16.696-16.696 0-9.218-7.473-16.696-16.696-16.696zM339.478 133.565h-16.854c10.529-13.971 16.854-31.283 16.854-50.087C339.478 37.446 302.032 0 256 0s-83.478 37.446-83.478 83.478c0 18.804 6.324 36.116 16.854 50.087h-16.854c-18.442 0-33.391 14.949-33.391 33.391s14.949 33.391 33.391 33.391h166.957c18.442 0 33.391-14.949 33.391-33.391s-14.95-33.391-33.392-33.391zm-3.051 100.174H174.18a455.769 455.769 0 0 1-4.329 66.783h170.906a455.77 455.77 0 0 1-4.33-66.783z" fill="maroon"/></svg>